<svg width="487" height="86" viewBox="0 0 487 86" fill="none" xmlns="http://www.w3.org/2000/svg">
<g clip-path="url(#clip0_1_44)">
<path d="M340.34 40.35H362.96C373.35 40.35 379.47 33.63 379.47 25.07C379.47 15.9 373.36 11.01 362.96 11.01H340.34V40.35ZM328.12 85.59V0H364.8C380.69 0 391.7 9.78 391.7 23.23C391.7 34.23 385.59 42.43 377.64 44.87C387.42 44.87 390.48 48.29 390.48 56.85V85.58H378.25V59.9C378.25 53.18 376.42 51.34 369.69 51.34H340.35V85.58H328.12V85.59Z" fill="white"/>
<path d="M248.36 85.59V0H310.71V11H260.58V36.07H303.38V47.07H260.58V74.58H311.94V85.59H248.36Z" fill="white"/>
<path d="M192.51 85.59V11H161.94V0H235.3V11H204.73V85.59H192.51Z" fill="white"/>
<path d="M79.76 85.59V0H96.88L136.62 70.79V0H148.84V85.59H131.72L91.99 14.79V85.59H79.76Z" fill="white"/>
<path d="M0 85.59V0H62.36V11H12.23V36.07H55.02V47.07H12.23V74.58H63.58V85.59H0Z" fill="white"/>
<path d="M485.24 0H437.51C436.95 0 436.5 0.45 436.5 1.01V46.79C436.5 47.35 436.05 47.8 435.49 47.8H410.57C410.01 47.8 409.56 48.25 409.56 48.81V84.6C409.56 85.16 410.01 85.61 410.57 85.61H485.24C485.8 85.61 486.25 85.16 486.25 84.6V1.01C486.25 0.45 485.8 0 485.24 0Z" fill="white"/>
<path d="M240.987 55V54.233L244.703 49.4602V49.392H241.106V48.4545H245.998V49.2557L242.385 53.9943V54.0625H246.118V55H240.987Z" fill="black"/>
</g>
<defs>
<clipPath id="clip0_1_44">
<rect width="486.24" height="85.59" fill="white"/>
</clipPath>
</defs>
</svg>
